<?xml version="1.0" encoding="iso-8859-1"?>
<!-- Generator: Adobe Illustrator 19.0.0, SVG Export Plug-In . SVG Version: 6.00 Build 0)  -->
<svg xmlns="http://www.w3.org/2000/svg" xmlns:xlink="http://www.w3.org/1999/xlink" version="1.1" id="Layer_1" x="0px" y="0px" viewBox="0 0 512 512" style="enable-background:new 0 0 512 512;" xml:space="preserve" width="512px" height="512px">
<g>
	<g>
		<path d="M271.872,209.742c-0.731-2.048-1.71-3.851-2.928-5.412c-1.218-1.558-2.683-2.779-4.388-3.657    c-1.707-0.875-3.582-1.316-5.63-1.316c-2.926,0-5.705,1.049-8.338,3.145c-2.633,2.098-4.633,4.852-5.997,8.263v13.751    c3.606,5.264,7.993,7.897,13.165,7.897c4.582,0,8.263-1.46,11.042-4.388c2.779-2.925,4.17-6.824,4.17-11.703    C272.969,213.983,272.603,211.79,271.872,209.742z" fill="#ffffff"/>
	</g>
</g>
<g>
	<g>
		<path d="M160.919,220.422c-1.952-0.389-3.707-0.586-5.266-0.586c-3.415,0-6.242,0.83-8.485,2.489    c-2.243,1.657-3.364,3.755-3.364,6.288c0,2.149,0.853,3.904,2.558,5.267c1.707,1.367,3.877,2.048,6.51,2.048    c1.655,0,3.364-0.267,5.12-0.807c1.755-0.534,3.314-1.243,4.681-2.121c1.072-0.779,1.95-1.631,2.633-2.557    c0.68-0.928,1.024-1.879,1.024-2.855v-5.703C164.672,221.3,162.867,220.813,160.919,220.422z" fill="#ffffff"/>
	</g>
</g>
<g>
	<g>
		<path d="M488.727,31.03H287.03V0H224.97v31.03H23.273v341.333h132.842L131.03,512h47.383l25.032-139.636h105.107L333.587,512    h47.383l-25.085-139.636h132.842V31.03z M199.393,254.357c-2.243,0.487-4.364,0.855-6.364,1.097c-2,0.242-3.781,0.366-5.339,0.366    c-4.974,0.002-8.755-0.901-11.339-2.704c-2.585-1.803-4.267-4.461-5.047-7.973l-0.585-2.779    c-3.415,4.388-7.363,7.73-11.849,10.021c-4.487,2.288-9.267,3.437-14.334,3.437c-3.804,0-7.365-0.636-10.679-1.904    c-3.317-1.263-6.17-2.998-8.558-5.191c-2.391-2.194-4.267-4.803-5.632-7.827c-1.367-3.021-2.048-6.291-2.048-9.799    c0-3.901,0.827-7.461,2.489-10.679c1.655-3.218,3.949-5.997,6.875-8.336c2.926-2.343,6.412-4.146,10.459-5.415    c4.045-1.263,8.507-1.901,13.385-1.901c6.239,0,11.41,0.976,15.506,2.925v-2.34c0-3.606-1.05-6.291-3.145-8.046    c-2.099-1.755-5.485-2.633-10.167-2.633c-4.388,0-8.437,0.709-12.141,2.121c-3.708,1.415-7.606,3.488-11.703,6.218l-8.045-17.264    c10.142-6.53,21.698-9.799,34.67-9.799c12.286,0,21.746,2.734,28.377,8.19c6.63,5.463,9.947,13.655,9.947,24.576v14.921    c0,2.633,0.389,4.461,1.171,5.485c0.779,1.024,2.144,1.637,4.096,1.831V254.357z M298.788,232.049    c-1.806,4.827-4.292,8.994-7.461,12.507c-3.17,3.513-6.949,6.267-11.337,8.263c-4.388,2.001-9.118,3.002-14.189,3.002    c-11.607,0-19.893-4.485-24.868-13.458v11.993h-24.137V147.572h27.794v41.252c2.242-4.191,5.412-7.388,9.508-9.582    s8.921-3.291,14.482-3.291c4.679,0,9.042,1.024,13.092,3.072c4.045,2.048,7.533,4.852,10.46,8.412    c2.925,3.561,5.215,7.803,6.873,12.724c1.657,4.928,2.489,10.266,2.489,16.018C301.494,221.932,300.591,227.222,298.788,232.049z     M346.984,228.101c2.633,2.878,5.851,4.315,9.655,4.315c4.485,0,8.046-1.901,10.679-5.703l27.063,8.19    c-3.125,6.142-7.827,11.166-14.119,15.067c-6.288,3.904-14.116,5.851-23.476,5.851c-6.827,0-12.873-1.097-18.139-3.291    c-5.267-2.194-9.678-5.122-13.239-8.775c-3.561-3.657-6.267-7.9-8.117-12.727c-1.854-4.827-2.779-9.875-2.779-15.14    c0-5.267,0.925-10.314,2.779-15.143c1.851-4.827,4.558-9.067,8.117-12.724c3.561-3.657,7.973-6.585,13.239-8.778    c5.267-2.194,11.312-3.291,18.139-3.291c9.36,0,17.188,1.952,23.476,5.851c6.291,3.904,10.994,8.924,14.119,15.067l-27.063,8.19    c-2.633-3.803-6.194-5.703-10.679-5.703c-3.803,0-7.021,1.44-9.655,4.315c-2.633,2.877-3.949,6.949-3.949,12.215    C343.035,221.151,344.349,225.224,346.984,228.101z" fill="#ffffff"/>
	</g>
</g>
<g>
</g>
<g>
</g>
<g>
</g>
<g>
</g>
<g>
</g>
<g>
</g>
<g>
</g>
<g>
</g>
<g>
</g>
<g>
</g>
<g>
</g>
<g>
</g>
<g>
</g>
<g>
</g>
<g>
</g>
</svg>
